<?xml version="1.0" standalone="no"?>
<!DOCTYPE svg PUBLIC "-//W3C//DTD SVG 20010904//EN"
 "http://www.w3.org/TR/2001/REC-SVG-20010904/DTD/svg10.dtd">
<svg version="1.0" xmlns="http://www.w3.org/2000/svg"
 width="225.000000pt" height="225.000000pt" viewBox="0 0 225.000000 225.000000"
 preserveAspectRatio="xMidYMid meet">

<g transform="translate(0.000000,225.000000) scale(0.100000,-0.100000)"
fill="#d33847" stroke="none">
<path d="M115 2235 c-50 -18 -91 -62 -105 -113 -7 -27 -9 -342 -8 -973 l3
-934 287 278 c284 274 306 292 323 249 7 -18 -17 -42 -405 -415 l-205 -197 20
-37 c11 -21 35 -48 54 -60 l34 -23 229 223 c353 342 387 372 407 360 9 -6 16
-16 16 -24 0 -8 -128 -138 -284 -289 l-284 -275 943 -3 c659 -1 955 1 983 9
52 14 102 63 116 114 15 56 15 1944 0 2000 -14 50 -64 100 -114 114 -28 8
-334 11 -1005 11 -806 -1 -972 -3 -1005 -15z m1830 -395 c-1 -71 -7 -113 -24
-166 -56 -172 -177 -359 -344 -529 l-108 -110 -23 -110 -22 -110 -65 -61 c-83
-79 -124 -114 -137 -114 -6 0 -26 48 -46 108 l-36 107 42 38 c47 42 36 40 -29
-6 -39 -28 -46 -29 -104 -23 l-62 7 -44 -43 -43 -42 -47 47 -47 47 41 42 42
43 -14 40 c-20 57 -19 61 23 113 36 46 18 41 -23 -6 l-20 -23 -110 34 c-60 19
-111 39 -112 44 -2 6 35 55 81 109 l86 98 113 31 114 30 60 70 c111 130 320
288 468 356 117 53 221 79 310 76 l80 -2 0 -95z m-1137 -1079 c-4 -21 -573
-571 -591 -571 -14 0 -37 20 -37 31 0 4 133 136 297 293 257 247 299 284 315
275 11 -6 18 -18 16 -28z"/>
<path d="M1402 1569 c-155 -79 -160 -289 -6 -289 149 0 262 196 164 285 -31
28 -107 30 -158 4z"/>
</g>
</svg>
